<svg width="25" height="24" viewBox="0 0 25 24" fill="none" xmlns="http://www.w3.org/2000/svg">
<path d="M12.477 2C6.96299 2 2.47699 6.486 2.47699 12C2.47699 17.514 6.96299 22 12.477 22C17.991 22 22.477 17.514 22.477 12C22.477 6.486 17.991 2 12.477 2ZM10.478 16.413L7.47244 13.4139C7.08169 13.024 7.0809 12.3912 7.47068 12.0003C7.8607 11.6092 8.494 11.6085 8.88492 11.9987L10.476 13.587L15.063 9C15.4535 8.60953 16.0865 8.60953 16.477 9C16.8675 9.39047 16.8675 10.0235 16.477 10.414L10.478 16.413Z" fill="#2FAB73"/>
</svg>
