<svg width="25" height="24" viewBox="0 0 25 24" fill="none" xmlns="http://www.w3.org/2000/svg">
<path d="M10.7495 16.73C10.6183 16.7303 10.4882 16.7046 10.3669 16.6545C10.2456 16.6044 10.1354 16.5308 10.0425 16.438L5.80054 12.195C5.70496 12.1028 5.62871 11.9925 5.57621 11.8706C5.52372 11.7486 5.49604 11.6174 5.4948 11.4846C5.49355 11.3518 5.51876 11.2201 5.56895 11.0972C5.61915 10.9743 5.69332 10.8626 5.78714 10.7686C5.88097 10.6747 5.99257 10.6003 6.11543 10.55C6.23829 10.4996 6.36995 10.4742 6.50273 10.4753C6.6355 10.4763 6.76674 10.5038 6.88878 10.5561C7.01082 10.6085 7.12122 10.6846 7.21354 10.78L10.7485 14.315L17.1135 7.952C17.301 7.76436 17.5554 7.65889 17.8207 7.6588C18.086 7.6587 18.3404 7.76399 18.528 7.9515C18.7157 8.13901 18.8211 8.39338 18.8212 8.65865C18.8213 8.92392 18.716 9.17836 18.5285 9.366L11.4565 16.438C11.3637 16.5308 11.2535 16.6044 11.1322 16.6545C11.0108 16.7046 10.8808 16.7303 10.7495 16.73V16.73Z" fill="#2FAB73"/>
</svg>
